<svg width="828" height="203" viewBox="0 0 828 203" fill="none" xmlns="http://www.w3.org/2000/svg">
<g filter="url(#filter0_b_81_253)">
<path fill-rule="evenodd" clip-rule="evenodd" d="M488.355 170.38L528.307 202.206H543.925L499.093 166.236C513.084 159.249 524.147 148.849 532.281 135.036C540.578 121.224 544.727 105.299 544.727 87.2618C544.727 70.3619 541.148 55.3308 533.99 42.1684C526.831 28.8435 516.907 18.5248 504.217 11.2124C491.528 3.73746 477.292 0 461.511 0C445.731 0 431.495 3.73746 418.806 11.2124C406.116 18.5248 396.192 28.8435 389.033 42.1684C381.875 55.3308 378.296 70.3619 378.296 87.2618C378.296 103.999 381.875 119.03 389.033 132.355C396.192 145.68 406.116 156.08 418.806 163.555C431.495 170.867 445.731 174.524 461.511 174.524C470.785 174.524 479.733 173.142 488.355 170.38ZM399.039 128.211C392.694 116.512 389.521 102.862 389.521 87.2618C389.521 71.4994 392.694 57.7683 399.039 46.0684C405.384 34.3685 414.006 25.3498 424.906 19.0123C435.807 12.6749 448.008 9.50617 461.511 9.50617C475.015 9.50617 487.216 12.6749 498.117 19.0123C509.017 25.3498 517.558 34.3685 523.74 46.0684C530.085 57.7683 533.257 71.4994 533.257 87.2618C533.257 102.862 530.085 116.512 523.74 128.211C517.558 139.911 509.017 148.93 498.117 155.268C487.216 161.605 475.015 164.774 461.511 164.774C448.008 164.774 435.807 161.605 424.906 155.268C414.006 148.93 405.384 139.911 399.039 128.211ZM571.785 2.33496V109.34C571.785 128.678 576.177 142.896 584.963 151.996C593.748 160.934 605.705 165.402 620.836 165.402C635.803 165.402 647.598 160.934 656.22 151.996C664.843 143.059 669.154 128.84 669.154 109.34V2.33496H680.136V109.097C680.136 131.359 674.767 147.934 664.03 158.821C653.292 169.709 638.894 175.152 620.836 175.152C602.777 175.152 588.216 169.709 577.153 158.821C566.253 147.771 560.803 131.196 560.803 109.097V2.33496H571.785ZM708.435 173.446V2.33496H697.453V173.446H708.435ZM828 163.696H736.243L826.292 11.8411V2.33496H725.994V12.3286H813.602L723.554 164.184V173.446H828V163.696ZM314 2.33496V173.446H303.019V2.33496H314ZM294.134 11.5974V2.33496H185.539V11.5974H234.346V173.446H245.327V11.5974H294.134ZM158.914 84.9656C168.839 86.753 177.136 91.628 183.806 99.5904C190.639 107.553 194.055 116.897 194.055 127.621C194.055 136.396 191.94 144.278 187.71 151.265C183.643 158.09 177.461 163.534 169.164 167.596C161.029 171.496 151.105 173.446 139.392 173.446H84.9722V2.33496H138.416C155.498 2.33496 168.35 6.31617 176.973 14.2786C185.758 22.0785 190.151 32.2347 190.151 44.7471C190.151 55.6345 187.222 64.4907 181.366 71.3157C175.509 77.9781 168.025 82.5281 158.914 84.9656ZM95.9537 80.0906H138.904C151.756 80.0906 161.599 77.0844 168.432 71.0719C175.427 64.897 178.925 56.447 178.925 45.7221C178.925 35.3222 175.509 27.116 168.676 21.1036C161.843 15.0911 151.512 12.0849 137.684 12.0849H95.9537V80.0906ZM138.66 163.94C152.488 163.94 163.307 160.69 171.116 154.19C179.088 147.528 183.074 138.428 183.074 126.89C183.074 115.515 179.007 106.497 170.872 99.8342C162.9 93.0092 151.919 89.5968 137.928 89.5968H95.9537V163.94H138.66ZM74.6744 164.184H10.9815V2.33496H0V173.446H74.6744V164.184Z" fill="white" fill-opacity="0.9"/>
</g>
<defs>
<filter id="filter0_b_81_253" x="-150" y="-150" width="1128" height="502.207" filterUnits="userSpaceOnUse" color-interpolation-filters="sRGB">
<feFlood flood-opacity="0" result="BackgroundImageFix"/>
<feGaussianBlur in="BackgroundImageFix" stdDeviation="75"/>
<feComposite in2="SourceAlpha" operator="in" result="effect1_backgroundBlur_81_253"/>
<feBlend mode="normal" in="SourceGraphic" in2="effect1_backgroundBlur_81_253" result="shape"/>
</filter>
</defs>
</svg>
